<svg xmlns="http://www.w3.org/2000/svg" width="900" height="380" viewBox="0 0 900 380" font-family="ui-sans-serif,-apple-system,Segoe UI,Roboto,Helvetica,Arial,sans-serif">
  <defs>
    <style>
      .card { fill: #0e1117; stroke: #1b2230; stroke-width: 1; }
      .lbl  { fill: #8b94a3; font-size: 11px; font-weight: 600; letter-spacing: .06em; text-transform: uppercase; }
      .h    { fill: #e6e9ef; font-size: 15px; font-weight: 600; }
      .t    { fill: #b6becb; font-size: 12.5px; }
      .mono { font-family: ui-monospace,SFMono-Regular,Menlo,Consolas,monospace; font-size: 11.5px; fill: #9fb2d6; }
      .dim  { fill: #6b7482; font-size: 11.5px; }
    </style>
    <marker id="arrow" viewBox="0 0 10 10" refX="8" refY="5" markerWidth="7" markerHeight="7" orient="auto-start-reverse">
      <path d="M0 0 L10 5 L0 10 z" fill="#2c5fd0"/>
    </marker>
  </defs>

  <rect x="0" y="0" width="900" height="380" rx="14" fill="#080a0e"/>

  <!-- title -->
  <circle cx="34" cy="34" r="6" fill="#4b8bf5"/>
  <text x="50" y="38" class="h" font-size="16">Hunt Console</text>
  <text x="182" y="38" class="dim">a hunt is broader than one alert — objective in, findings + narrative out</text>

  <!-- Stage 1: objective -->
  <rect class="card" x="28" y="70" width="250" height="250" rx="12"/>
  <text x="48" y="98" class="lbl">1 · Objective</text>
  <text x="48" y="124" class="t">You ask, in plain English:</text>
  <rect x="48" y="138" width="210" height="74" rx="10" fill="#11161e" stroke="#233043" stroke-width="1"/>
  <text x="62" y="162" class="mono">“hunt for beaconing to</text>
  <text x="62" y="180" class="mono">rare external IPs in the</text>
  <text x="62" y="198" class="mono">last 24h”</text>
  <text x="48" y="240" class="dim">Triggered ad hoc, from an alert</text>
  <text x="48" y="258" class="dim">group, or scheduled.</text>

  <!-- arrow 1 -->
  <line x1="286" y1="195" x2="322" y2="195" stroke="#2c5fd0" stroke-width="2" marker-end="url(#arrow)"/>

  <!-- Stage 2: read-only agent loop -->
  <rect class="card" x="330" y="70" width="250" height="250" rx="12"/>
  <text x="350" y="98" class="lbl">2 · Read-only agent loop</text>
  <rect x="486" y="84" width="76" height="18" rx="9" fill="#0f2417" stroke="#1f5133" stroke-width="1"/>
  <text x="498" y="97" font-size="10" font-weight="700" fill="#3fb950" letter-spacing=".05em">READ-ONLY</text>
  <text x="350" y="124" class="t">Correlates across hosts × time:</text>
  <text x="350" y="150" class="mono">▸ t_query_events_oql</text>
  <text x="350" y="170" class="mono">▸ t_query_zeek_logs</text>
  <text x="350" y="190" class="mono">▸ t_host_summary</text>
  <text x="350" y="210" class="mono">▸ t_prevalence · t_rule_prevalence</text>
  <text x="350" y="230" class="mono">▸ t_enrich_ip / domain / hash</text>
  <text x="350" y="250" class="mono">▸ t_get_pcap · t_web_search</text>
  <text x="350" y="286" class="dim">No writes. No acks. No case edits.</text>
  <text x="350" y="304" class="dim">Concludes on a bounded budget.</text>

  <!-- arrow 2 -->
  <line x1="588" y1="195" x2="624" y2="195" stroke="#2c5fd0" stroke-width="2" marker-end="url(#arrow)"/>

  <!-- Stage 3: hunt report -->
  <rect class="card" x="632" y="70" width="240" height="250" rx="12"/>
  <text x="652" y="98" class="lbl">3 · Hunt report</text>

  <circle cx="656" cy="120" r="4" fill="#f0522f"/>
  <text x="668" y="124" class="t">Findings, evidence-cited</text>
  <circle cx="656" cy="142" r="4" fill="#e3a008"/>
  <text x="668" y="146" class="t">+ severity, category &amp; hosts</text>

  <line x1="652" y1="162" x2="852" y2="162" stroke="#1b2230" stroke-width="1"/>

  <text x="652" y="186" class="dim">NARRATIVE</text>
  <text x="652" y="204" class="mono" fill="#b6becb">the story across hosts/time</text>

  <text x="652" y="232" class="dim">MITRE ATT&amp;CK</text>
  <rect x="652" y="240" width="66" height="18" rx="4" fill="#101a2c" stroke="#284066"/>
  <text x="660" y="253" class="mono" fill="#7fa8f0">T1071.001</text>
  <rect x="724" y="240" width="54" height="18" rx="4" fill="#101a2c" stroke="#284066"/>
  <text x="732" y="253" class="mono" fill="#7fa8f0">T1048</text>

  <text x="652" y="284" class="dim">RECOMMENDED ACTIONS</text>
  <text x="652" y="302" class="t" font-size="12">advisory — you decide</text>
</svg>
