<svg xmlns="http://www.w3.org/2000/svg" width="880" height="400" viewBox="0 0 880 400" role="img" aria-label="soc-ai roadmap: versions 1.0 through 1.2 shipped, 1.2.1 is current, 1.3 and later are planned">
  <style>
    text { font-family: ui-sans-serif, system-ui, -apple-system, "Segoe UI", sans-serif; }
    .title { font-size: 19px; font-weight: 600; fill: #e6edf3; }
    .subtitle { font-size: 12px; fill: #8b949e; }
    .ver { font-size: 13px; font-weight: 700; fill: #e6edf3; }
    .ver-now { font-size: 13px; font-weight: 700; fill: #58a6ff; }
    .ver-future { font-size: 13px; font-weight: 700; fill: #8b949e; }
    .date { font-size: 10.5px; fill: #8b949e; }
    .theme { font-size: 12px; font-weight: 600; fill: #e6edf3; }
    .theme-future { font-size: 12px; font-weight: 600; fill: #8b949e; }
    .detail { font-size: 10.5px; fill: #8b949e; }
    .flag { font-size: 10px; font-weight: 700; fill: #0d1117; letter-spacing: 0.5px; }
    .legend { font-size: 10.5px; fill: #8b949e; }
    .caption { font-size: 11.5px; fill: #8b949e; }
  </style>

  <rect x="0" y="0" width="880" height="400" rx="12" fill="#0d1117"/>

  <text x="40" y="48" class="title">Where soc-ai is, and where it&#8217;s going</text>
  <text x="40" y="70" class="subtitle">Updated July 2026 &#183; current release 1.2.1</text>

  <!-- legend -->
  <circle cx="590" cy="44" r="5" fill="#3fb950"/>
  <text x="600" y="48" class="legend">shipped</text>
  <circle cx="665" cy="44" r="5" fill="none" stroke="#58a6ff" stroke-width="2.5"/>
  <text x="676" y="48" class="legend">you are here</text>
  <circle cx="762" cy="44" r="5" fill="none" stroke="#8b949e" stroke-width="1.5" stroke-dasharray="2.5,2.5"/>
  <text x="773" y="48" class="legend">planned</text>

  <!-- track: shipped portion solid green, future portion dashed gray -->
  <line x1="70" y1="170" x2="562" y2="170" stroke="#3fb950" stroke-width="3"/>
  <line x1="562" y1="170" x2="808" y2="170" stroke="#30363d" stroke-width="3" stroke-dasharray="5,5"/>

  <!-- YOU ARE HERE flag -->
  <rect x="516" y="98" width="92" height="22" rx="11" fill="#58a6ff"/>
  <text x="562" y="113" text-anchor="middle" class="flag">YOU ARE HERE</text>
  <line x1="562" y1="120" x2="562" y2="154" stroke="#58a6ff" stroke-width="2"/>

  <!-- 1.0 -->
  <circle cx="70" cy="170" r="9" fill="#3fb950"/>
  <path d="M 65.5 170 l 3 3.4 l 6 -6.6" stroke="#0d1117" stroke-width="2.2" fill="none" stroke-linecap="round" stroke-linejoin="round"/>
  <text x="70" y="212" text-anchor="middle" class="ver">1.0</text>
  <text x="70" y="228" text-anchor="middle" class="date">Jun 2026</text>
  <text x="70" y="250" text-anchor="middle" class="theme">Triage engine</text>
  <text x="70" y="268" text-anchor="middle" class="detail">verdicts with evidence</text>
  <text x="70" y="283" text-anchor="middle" class="detail">always-on console</text>

  <!-- 1.0.x -->
  <circle cx="193" cy="170" r="9" fill="#3fb950"/>
  <path d="M 188.5 170 l 3 3.4 l 6 -6.6" stroke="#0d1117" stroke-width="2.2" fill="none" stroke-linecap="round" stroke-linejoin="round"/>
  <text x="193" y="212" text-anchor="middle" class="ver">1.0.x</text>
  <text x="193" y="228" text-anchor="middle" class="date">Jul 2026</text>
  <text x="193" y="250" text-anchor="middle" class="theme">Hunt Console</text>
  <text x="193" y="268" text-anchor="middle" class="detail">backtests, runbooks</text>
  <text x="193" y="283" text-anchor="middle" class="detail">grid discovery</text>

  <!-- 1.1 -->
  <circle cx="316" cy="170" r="9" fill="#3fb950"/>
  <path d="M 311.5 170 l 3 3.4 l 6 -6.6" stroke="#0d1117" stroke-width="2.2" fill="none" stroke-linecap="round" stroke-linejoin="round"/>
  <text x="316" y="212" text-anchor="middle" class="ver">1.1</text>
  <text x="316" y="228" text-anchor="middle" class="date">Jul 2026</text>
  <text x="316" y="250" text-anchor="middle" class="theme">Measurement</text>
  <text x="316" y="268" text-anchor="middle" class="detail">quality trend + alarm</text>
  <text x="316" y="283" text-anchor="middle" class="detail">redaction previews</text>

  <!-- 1.2 -->
  <circle cx="439" cy="170" r="9" fill="#3fb950"/>
  <path d="M 434.5 170 l 3 3.4 l 6 -6.6" stroke="#0d1117" stroke-width="2.2" fill="none" stroke-linecap="round" stroke-linejoin="round"/>
  <text x="439" y="212" text-anchor="middle" class="ver">1.2</text>
  <text x="439" y="228" text-anchor="middle" class="date">Jul 2026</text>
  <text x="439" y="250" text-anchor="middle" class="theme">Operations</text>
  <text x="439" y="268" text-anchor="middle" class="detail">notifications, search</text>
  <text x="439" y="283" text-anchor="middle" class="detail">eval from the UI</text>

  <!-- 1.2.1 current -->
  <circle cx="562" cy="170" r="14" fill="#0d1117" stroke="#58a6ff" stroke-width="3"/>
  <circle cx="562" cy="170" r="6" fill="#58a6ff"/>
  <text x="562" y="212" text-anchor="middle" class="ver-now">1.2.1</text>
  <text x="562" y="228" text-anchor="middle" class="date">today</text>
  <text x="562" y="250" text-anchor="middle" class="theme">Quality</text>
  <text x="562" y="268" text-anchor="middle" class="detail">hunt latitude</text>
  <text x="562" y="283" text-anchor="middle" class="detail">pipeline honesty</text>

  <!-- 1.3 -->
  <circle cx="685" cy="170" r="9" fill="none" stroke="#8b949e" stroke-width="2" stroke-dasharray="3,3"/>
  <text x="685" y="212" text-anchor="middle" class="ver-future">1.3</text>
  <text x="685" y="228" text-anchor="middle" class="date">next</text>
  <text x="685" y="250" text-anchor="middle" class="theme-future">Flip the switches</text>
  <text x="685" y="268" text-anchor="middle" class="detail">schedules by default</text>
  <text x="685" y="283" text-anchor="middle" class="detail">chat alerts, case bridge</text>

  <!-- Later -->
  <circle cx="808" cy="170" r="9" fill="none" stroke="#8b949e" stroke-width="2" stroke-dasharray="3,3"/>
  <text x="808" y="212" text-anchor="middle" class="ver-future">Later</text>
  <text x="808" y="228" text-anchor="middle" class="date">&#160;</text>
  <text x="808" y="250" text-anchor="middle" class="theme-future">Bigger surface</text>
  <text x="808" y="268" text-anchor="middle" class="detail">multi-tenant, RBAC</text>
  <text x="808" y="283" text-anchor="middle" class="detail">specialty copilots</text>

  <!-- caption -->
  <text x="40" y="348" class="caption">Already in the box behind default-off switches: semantic runbook search, chat memory, a cloud second opinion,</text>
  <text x="40" y="366" class="caption">scheduled auto-triage and hunts, PCAP decode, web search, and online enrichment. Turn them on when you&#8217;re ready.</text>
</svg>
